<?xml version="1.0" encoding="UTF-8"?>
<svg width="150px" height="50px" viewBox="0 0 150 50" version="1.1" xmlns="http://www.w3.org/2000/svg" xmlns:xlink="http://www.w3.org/1999/xlink">
    <!-- Generator: Sketch 59.1 (86144) - https://sketch.com -->
    <title>doodle/desktop</title>
    <desc>Created with Sketch.</desc>
    <defs>
        <path d="M146.015764,0 C148.219494,0 150.008561,1.79087243 150.008561,4.00002553 L150.008561,4.00002553 L150.008561,35.9999745 C150.008561,38.2035752 148.220925,40 146.015764,40 L146.015764,40 L21.5055606,40 L15.9355608,44.711139 L15.9355606,40 L4.00135767,40 C1.86440727,40 0.117369702,38.3160208 0.0134509421,36.1996161 L0.00856062782,35.9999745 L0.00856062782,4.00002553 C0.00856062782,1.79642476 1.79619675,0 4.00135767,0 L4.00135767,0 Z" id="path-1"/>
    </defs>
    <g id="doodle/desktop" stroke="none" stroke-width="1" fill="none" fill-rule="evenodd">
        <g id="Header-Entry" transform="translate(0.000000, 5.000000)">
            <mask id="mask-2" fill="white">
                <use xlink:href="#path-1"/>
            </mask>
            <g id="Mask" opacity="0.802238806"/>
            <rect id="Rectangle" fill="#D4AC1F" mask="url(#mask-2)" x="-3.5" y="-5" width="162" height="59.5"/>
            <path d="M24.6388276,13.58 L24.6388276,28.19 C24.6388276,29.0500043 24.5388286,29.884996 24.3388276,30.695 C24.1388266,31.5050041 23.7938301,32.22 23.3038276,32.84 C22.8138252,33.4600031 22.1388319,33.9549982 21.2788276,34.325 C20.4188233,34.6950018 19.3288342,34.88 18.0088276,34.88 C17.1888235,34.88 16.4188312,34.7950009 15.6988276,34.625 C14.978824,34.4549991 14.3488303,34.1850018 13.8088276,33.815 C13.2688249,33.4449981 12.8338293,32.9550031 12.5038276,32.345 C12.173826,31.7349969 11.9888278,30.9800045 11.9488276,30.08 L13.0888276,30.08 C13.1488279,30.7600034 13.3188262,31.3399976 13.5988276,31.82 C13.878829,32.3000024 14.2438254,32.6949984 14.6938276,33.005 C15.1438299,33.3150015 15.6488248,33.5399993 16.2088276,33.68 C16.7688304,33.8200007 17.3688244,33.89 18.0088276,33.89 C19.0688329,33.89 19.9538241,33.7300016 20.6638276,33.41 C21.3738312,33.0899984 21.9388255,32.6750026 22.3588276,32.165 C22.7788297,31.6549974 23.0738268,31.0750033 23.2438276,30.425 C23.4138285,29.7749967 23.4988276,29.1200033 23.4988276,28.46 L23.4988276,24.92 L23.4388276,24.92 C22.8988249,26.0600057 22.1638323,26.929997 21.2338276,27.53 C20.303823,28.130003 19.1788342,28.43 17.8588276,28.43 C16.7188219,28.43 15.7338318,28.2350019 14.9038276,27.845 C14.0738235,27.4549981 13.3838304,26.9150035 12.8338276,26.225 C12.2838249,25.5349965 11.873829,24.7300046 11.6038276,23.81 C11.3338263,22.8899954 11.1988276,21.8900054 11.1988276,20.81 C11.1988276,19.7899949 11.3438262,18.8200046 11.6338276,17.9 C11.9238291,16.9799954 12.3488248,16.1750034 12.9088276,15.485 C13.4688304,14.7949966 14.1638235,14.2450021 14.9938276,13.835 C15.8238318,13.4249979 16.7788222,13.22 17.8588276,13.22 C19.0788337,13.22 20.2038225,13.5299969 21.2338276,14.15 C22.2638328,14.7700031 22.9988254,15.6499943 23.4388276,16.79 L23.4988276,16.79 L23.4988276,13.58 L24.6388276,13.58 Z M17.8588276,14.21 C16.9188229,14.21 16.1038311,14.3999981 15.4138276,14.78 C14.7238242,15.1600019 14.1538299,15.6599969 13.7038276,16.28 C13.2538254,16.9000031 12.9138288,17.6049961 12.6838276,18.395 C12.4538265,19.1850039 12.3388276,19.9899959 12.3388276,20.81 C12.3388276,21.71 12.4538265,22.564996 12.6838276,23.375 C12.9138288,24.185004 13.2638253,24.889997 13.7338276,25.49 C14.20383,26.090003 14.7838242,26.5649983 15.4738276,26.915 C16.1638311,27.2650017 16.9588231,27.44 17.8588276,27.44 C18.7988323,27.44 19.6188241,27.2600018 20.3188276,26.9 C21.0188311,26.5399982 21.6038253,26.0500031 22.0738276,25.43 C22.54383,24.8099969 22.8938265,24.105004 23.1238276,23.315 C23.3538288,22.524996 23.4688276,21.6900044 23.4688276,20.81 C23.4688276,19.9499957 23.3538288,19.120004 23.1238276,18.32 C22.8938265,17.519996 22.54383,16.8150031 22.0738276,16.205 C21.6038253,15.5949969 21.0188311,15.1100018 20.3188276,14.75 C19.6188241,14.3899982 18.7988323,14.21 17.8588276,14.21 Z M26.4942121,21.29 C26.4942121,20.1899945 26.6492106,19.1550049 26.9592121,18.185 C27.2692137,17.2149952 27.7242091,16.3600037 28.3242121,15.62 C28.9242151,14.8799963 29.6642077,14.2950021 30.5442121,13.865 C31.4242165,13.4349978 32.4342064,13.22 33.5742121,13.22 C34.7142178,13.22 35.7242077,13.4349978 36.6042121,13.865 C37.4842165,14.2950021 38.2242091,14.8799963 38.8242121,15.62 C39.4242151,16.3600037 39.8792106,17.2149952 40.1892121,18.185 C40.4992137,19.1550049 40.6542121,20.1899945 40.6542121,21.29 C40.6542121,22.3900055 40.4992137,23.4299951 40.1892121,24.41 C39.8792106,25.3900049 39.4242151,26.2449964 38.8242121,26.975 C38.2242091,27.7050037 37.4842165,28.2849978 36.6042121,28.715 C35.7242077,29.1450021 34.7142178,29.36 33.5742121,29.36 C32.4342064,29.36 31.4242165,29.1450021 30.5442121,28.715 C29.6642077,28.2849978 28.9242151,27.7050037 28.3242121,26.975 C27.7242091,26.2449964 27.2692137,25.3900049 26.9592121,24.41 C26.6492106,23.4299951 26.4942121,22.3900055 26.4942121,21.29 Z M27.6342121,21.29 C27.6342121,22.21 27.7642108,23.0949958 28.0242121,23.945 C28.2842134,24.7950042 28.6642096,25.5499967 29.1642121,26.21 C29.6642146,26.8700033 30.2842084,27.3949981 31.0242121,27.785 C31.7642158,28.175002 32.6142073,28.37 33.5742121,28.37 C34.5342169,28.37 35.3842084,28.175002 36.1242121,27.785 C36.8642158,27.3949981 37.4842096,26.8700033 37.9842121,26.21 C38.4842146,25.5499967 38.8642108,24.7950042 39.1242121,23.945 C39.3842134,23.0949958 39.5142121,22.21 39.5142121,21.29 C39.5142121,20.3699954 39.3842134,19.4850042 39.1242121,18.635 C38.8642108,17.7849958 38.4842146,17.0300033 37.9842121,16.37 C37.4842096,15.71 36.8642158,15.185002 36.1242121,14.795 C35.3842084,14.4049981 34.5342169,14.21 33.5742121,14.21 C32.6142073,14.21 31.7642158,14.4049981 31.0242121,14.795 C30.2842084,15.185002 29.6642146,15.71 29.1642121,16.37 C28.6642096,17.0300033 28.2842134,17.7849958 28.0242121,18.635 C27.7642108,19.4850042 27.6342121,20.3699954 27.6342121,21.29 Z M41.8195966,21.29 C41.8195966,20.1899945 41.9745951,19.1550049 42.2845966,18.185 C42.5945982,17.2149952 43.0495936,16.3600037 43.6495966,15.62 C44.2495996,14.8799963 44.9895922,14.2950021 45.8695966,13.865 C46.749601,13.4349978 47.7595909,13.22 48.8995966,13.22 C50.0396023,13.22 51.0495922,13.4349978 51.9295966,13.865 C52.809601,14.2950021 53.5495936,14.8799963 54.1495966,15.62 C54.7495996,16.3600037 55.2045951,17.2149952 55.5145966,18.185 C55.8245982,19.1550049 55.9795966,20.1899945 55.9795966,21.29 C55.9795966,22.3900055 55.8245982,23.4299951 55.5145966,24.41 C55.2045951,25.3900049 54.7495996,26.2449964 54.1495966,26.975 C53.5495936,27.7050037 52.809601,28.2849978 51.9295966,28.715 C51.0495922,29.1450021 50.0396023,29.36 48.8995966,29.36 C47.7595909,29.36 46.749601,29.1450021 45.8695966,28.715 C44.9895922,28.2849978 44.2495996,27.7050037 43.6495966,26.975 C43.0495936,26.2449964 42.5945982,25.3900049 42.2845966,24.41 C41.9745951,23.4299951 41.8195966,22.3900055 41.8195966,21.29 Z M42.9595966,21.29 C42.9595966,22.21 43.0895953,23.0949958 43.3495966,23.945 C43.6095979,24.7950042 43.9895941,25.5499967 44.4895966,26.21 C44.9895991,26.8700033 45.6095929,27.3949981 46.3495966,27.785 C47.0896003,28.175002 47.9395918,28.37 48.8995966,28.37 C49.8596014,28.37 50.7095929,28.175002 51.4495966,27.785 C52.1896003,27.3949981 52.8095941,26.8700033 53.3095966,26.21 C53.8095991,25.5499967 54.1895953,24.7950042 54.4495966,23.945 C54.7095979,23.0949958 54.8395966,22.21 54.8395966,21.29 C54.8395966,20.3699954 54.7095979,19.4850042 54.4495966,18.635 C54.1895953,17.7849958 53.8095991,17.0300033 53.3095966,16.37 C52.8095941,15.71 52.1896003,15.185002 51.4495966,14.795 C50.7095929,14.4049981 49.8596014,14.21 48.8995966,14.21 C47.9395918,14.21 47.0896003,14.4049981 46.3495966,14.795 C45.6095929,15.185002 44.9895991,15.71 44.4895966,16.37 C43.9895941,17.0300033 43.6095979,17.7849958 43.3495966,18.635 C43.0895953,19.4850042 42.9595966,20.3699954 42.9595966,21.29 Z M69.7749811,25.7 L69.7149811,25.7 C69.0749779,26.9200061 68.2749859,27.834997 67.3149811,28.445 C66.3549763,29.055003 65.184988,29.36 63.8049811,29.36 C62.6449811,29.36 61.6449811,29.1400022 60.8049811,28.7 C59.9649769,28.2599978 59.2749838,27.6700037 58.7349811,26.93 C58.1949784,26.1899963 57.7949824,25.3350049 57.5349811,24.365 C57.2749798,23.3949951 57.1449811,22.3800053 57.1449811,21.32 C57.1449811,20.1799943 57.2849797,19.1150049 57.5649811,18.125 C57.8449825,17.1349951 58.2699783,16.2800036 58.8399811,15.56 C59.409984,14.8399964 60.1249768,14.2700021 60.9849811,13.85 C61.8449854,13.4299979 62.8549753,13.22 64.0149811,13.22 C64.6349842,13.22 65.2449781,13.3049992 65.8449811,13.475 C66.4449841,13.6450009 66.9999786,13.8899984 67.5099811,14.21 C68.0199837,14.5300016 68.4649792,14.9299976 68.8449811,15.41 C69.224983,15.8900024 69.5149801,16.429997 69.7149811,17.03 L69.7749811,17.03 L69.7749811,7.58 L70.9149811,7.58 L70.9149811,29 L69.7749811,29 L69.7749811,25.7 Z M64.0449811,28.37 C65.024986,28.37 65.8699776,28.170002 66.5799811,27.77 C67.2899847,27.369998 67.8799788,26.8400033 68.3499811,26.18 C68.8199835,25.5199967 69.16998,24.7650042 69.3999811,23.915 C69.6299823,23.0649958 69.7449811,22.2000044 69.7449811,21.32 C69.7449811,20.4199955 69.6299823,19.5450043 69.3999811,18.695 C69.16998,17.8449958 68.8249834,17.0850034 68.3649811,16.415 C67.9049788,15.7449967 67.3099848,15.21 66.5799811,14.81 C65.8499775,14.409998 64.994986,14.21 64.0149811,14.21 C62.994976,14.21 62.1249847,14.4049981 61.4049811,14.795 C60.6849775,15.185002 60.0899835,15.71 59.6199811,16.37 C59.1499788,17.0300033 58.8099822,17.7899957 58.5999811,18.65 C58.3899801,19.5100043 58.2849811,20.3999954 58.2849811,21.32 C58.2849811,22.2200045 58.39998,23.0949958 58.6299811,23.945 C58.8599823,24.7950042 59.2099788,25.5499967 59.6799811,26.21 C60.1499835,26.8700033 60.7449775,27.3949981 61.4649811,27.785 C62.1849847,28.175002 63.0449761,28.37 64.0449811,28.37 Z M73.8803656,13.52 L73.8803656,29 L75.7703656,29 L75.7703656,20.75 C75.7703656,19.9299959 75.9103642,19.1750034 76.1903656,18.485 C76.470367,17.7949966 76.8653631,17.2000025 77.3753656,16.7 C77.8853682,16.1999975 78.4903621,15.8150014 79.1903656,15.545 C79.8903691,15.2749987 80.6703613,15.1599998 81.5303656,15.2 L81.5303656,13.31 C80.1303586,13.2499997 78.9253707,13.5599966 77.9153656,14.24 C76.9053606,14.9200034 76.160368,15.8899937 75.6803656,17.15 L75.6203656,17.15 L75.6203656,13.52 L73.8803656,13.52 Z M93.1357501,20.18 L83.1157501,20.18 C83.1957505,19.4799965 83.3607489,18.7950034 83.6107501,18.125 C83.8607514,17.4549967 84.195748,16.8650025 84.6157501,16.355 C85.0357522,15.8449975 85.5457471,15.4350015 86.1457501,15.125 C86.7457531,14.8149985 87.4357462,14.66 88.2157501,14.66 C88.9757539,14.66 89.6557471,14.8149985 90.2557501,15.125 C90.8557531,15.4350015 91.365748,15.8449975 91.7857501,16.355 C92.2057522,16.8650025 92.530749,17.4499967 92.7607501,18.11 C92.9907513,18.7700033 93.1157501,19.4599964 93.1357501,20.18 Z M83.1157501,21.77 L95.0257501,21.77 C95.0657503,20.6899946 94.9657513,19.6250053 94.7257501,18.575 C94.4857489,17.5249948 94.0907529,16.5950041 93.5407501,15.785 C92.9907474,14.974996 92.2757545,14.3200025 91.3957501,13.82 C90.5157457,13.3199975 89.4557563,13.07 88.2157501,13.07 C86.995744,13.07 85.9407546,13.3049977 85.0507501,13.775 C84.1607457,14.2450024 83.4357529,14.8649961 82.8757501,15.635 C82.3157473,16.4050038 81.9007515,17.2799951 81.6307501,18.26 C81.3607488,19.2400049 81.2257501,20.2399949 81.2257501,21.26 C81.2257501,22.3600055 81.3607488,23.4049951 81.6307501,24.395 C81.9007515,25.3850049 82.3157473,26.2549962 82.8757501,27.005 C83.4357529,27.7550038 84.1607457,28.3449978 85.0507501,28.775 C85.9407546,29.2050021 86.995744,29.42 88.2157501,29.42 C90.1757599,29.42 91.6907448,28.9400048 92.7607501,27.98 C93.8307555,27.0199952 94.5657481,25.6600088 94.9657501,23.9 L93.0757501,23.9 C92.7757486,25.100006 92.235754,26.0599964 91.4557501,26.78 C90.6757462,27.5000036 89.595757,27.86 88.2157501,27.86 C87.3157456,27.86 86.5457533,27.6700019 85.9057501,27.29 C85.2657469,26.9099981 84.7357522,26.4300029 84.3157501,25.85 C83.895748,25.2699971 83.5907511,24.6150037 83.4007501,23.885 C83.2107492,23.1549963 83.1157501,22.4500034 83.1157501,21.77 Z M96.6111346,18.26 L98.5011346,18.26 C98.5411348,16.9999937 98.9411308,16.0850029 99.7011346,15.515 C100.461138,14.9449971 101.441129,14.66 102.641135,14.66 C103.201137,14.66 103.726132,14.7049996 104.216135,14.795 C104.706137,14.8850004 105.136133,15.0499988 105.506135,15.29 C105.876136,15.5300012 106.166134,15.8549979 106.376135,16.265 C106.586136,16.6750021 106.691135,17.1999968 106.691135,17.84 C106.691135,18.2600021 106.636135,18.5999987 106.526135,18.86 C106.416134,19.1200013 106.261136,19.3249993 106.061135,19.475 C105.861134,19.6250008 105.611136,19.7299997 105.311135,19.79 C105.011133,19.8500003 104.661137,19.8999998 104.261135,19.94 C103.24113,20.0600006 102.23614,20.1849994 101.246135,20.315 C100.25613,20.4450007 99.3661386,20.6699984 98.5761346,20.99 C97.7861307,21.3100016 97.151137,21.774997 96.6711346,22.385 C96.1911322,22.9950031 95.9511346,23.8399946 95.9511346,24.92 C95.9511346,25.7000039 96.0861333,26.3749971 96.3561346,26.945 C96.626136,27.5150029 96.9961323,27.9849982 97.4661346,28.355 C97.936137,28.7250018 98.4861315,28.9949991 99.1161346,29.165 C99.7461378,29.3350009 100.421131,29.42 101.141135,29.42 C101.901138,29.42 102.556132,29.3500007 103.106135,29.21 C103.656137,29.07 104.146132,28.8700013 104.576135,28.61 C105.006137,28.3499987 105.396133,28.025002 105.746135,27.635 C106.096136,27.244998 106.441133,26.8000025 106.781135,26.3 L106.841135,26.3 C106.841135,26.700002 106.866134,27.0649983 106.916135,27.395 C106.966135,27.7250017 107.071134,28.0099988 107.231135,28.25 C107.391135,28.4900012 107.616133,28.6749994 107.906135,28.805 C108.196136,28.9350006 108.581132,29 109.061135,29 C109.321136,29 109.536134,28.9900001 109.706135,28.97 C109.876135,28.9499999 110.071134,28.9200002 110.291135,28.88 L110.291135,27.29 C110.111134,27.3700004 109.911136,27.41 109.691135,27.41 C108.951135,27.41 108.581135,27.0300038 108.581135,26.27 L108.581135,18.05 C108.581135,17.0099948 108.411136,16.1650033 108.071135,15.515 C107.731133,14.8649967 107.291137,14.3600018 106.751135,14 C106.211132,13.6399982 105.601138,13.3950007 104.921135,13.265 C104.241131,13.1349994 103.561138,13.07 102.881135,13.07 C101.98113,13.07 101.161138,13.169999 100.421135,13.37 C99.6811309,13.57 99.0361374,13.8799979 98.4861346,14.3 C97.9361319,14.7200021 97.5011362,15.2599967 97.1811346,15.92 C96.861133,16.5800033 96.6711349,17.3599955 96.6111346,18.26 Z M106.691135,20.54 L106.691135,23 C106.691135,23.7600038 106.546136,24.439997 106.256135,25.04 C105.966133,25.640003 105.576137,26.1499979 105.086135,26.57 C104.596132,26.9900021 104.021138,27.3099989 103.361135,27.53 C102.701131,27.7500011 102.011138,27.86 101.291135,27.86 C100.851132,27.86 100.421137,27.7900007 100.001135,27.65 C99.5811325,27.5099993 99.2111362,27.3050013 98.8911346,27.035 C98.571133,26.7649986 98.3161356,26.4450018 98.1261346,26.075 C97.9361337,25.7049982 97.8411346,25.2800024 97.8411346,24.8 C97.8411346,24.04 98.0661324,23.4550021 98.5161346,23.045 C98.9661369,22.6349979 99.5411311,22.3200011 100.241135,22.1 C100.824471,21.9166657 101.459883,21.7715279 102.147383,21.6645834 L102.566135,21.605 C103.416139,21.4949995 104.241131,21.3700007 105.041135,21.23 C105.301136,21.1899998 105.601133,21.1200005 105.941135,21.02 C106.281136,20.9199995 106.511134,20.7600011 106.631135,20.54 L106.691135,20.54 Z M125.196519,29 L125.196519,7.58 L123.306519,7.58 L123.306519,16.46 L123.246519,16.46 C123.046518,15.8999972 122.761521,15.4100021 122.391519,14.99 C122.021517,14.5699979 121.596522,14.2150014 121.116519,13.925 C120.636517,13.6349986 120.121522,13.4200007 119.571519,13.28 C119.021516,13.1399993 118.456522,13.07 117.876519,13.07 C116.696513,13.07 115.671523,13.2899978 114.801519,13.73 C113.931515,14.1700022 113.206522,14.7649962 112.626519,15.515 C112.046516,16.2650037 111.616521,17.1349951 111.336519,18.125 C111.056518,19.1150049 110.916519,20.1599945 110.916519,21.26 C110.916519,22.3600055 111.056518,23.404995 111.336519,24.395 C111.616521,25.3850049 112.046516,26.2549962 112.626519,27.005 C113.206522,27.7550038 113.931515,28.3449978 114.801519,28.775 C115.671523,29.2050021 116.696513,29.42 117.876519,29.42 C118.436522,29.42 119.001516,29.3400008 119.571519,29.18 C120.141522,29.0199992 120.676517,28.7950015 121.176519,28.505 C121.676522,28.2149986 122.121517,27.8600021 122.511519,27.44 C122.901521,27.0199979 123.196518,26.5600025 123.396519,26.06 L123.456519,26.06 L123.456519,29 L125.196519,29 Z M112.806519,21.26 C112.806519,20.459996 112.901518,19.6650039 113.091519,18.875 C113.28152,18.0849961 113.581517,17.3800031 113.991519,16.76 C114.401521,16.1399969 114.926516,15.6350019 115.566519,15.245 C116.206522,14.8549981 116.976515,14.66 117.876519,14.66 C118.876524,14.66 119.721516,14.8549981 120.411519,15.245 C121.101523,15.6350019 121.661517,16.1399969 122.091519,16.76 C122.521521,17.3800031 122.831518,18.0849961 123.021519,18.875 C123.21152,19.6650039 123.306519,20.459996 123.306519,21.26 C123.306519,22.060004 123.21152,22.8549961 123.021519,23.645 C122.831518,24.435004 122.521521,25.1399969 122.091519,25.76 C121.661517,26.3800031 121.101523,26.8849981 120.411519,27.275 C119.721516,27.665002 118.876524,27.86 117.876519,27.86 C116.976515,27.86 116.206522,27.665002 115.566519,27.275 C114.926516,26.8849981 114.401521,26.3800031 113.991519,25.76 C113.581517,25.1399969 113.28152,24.435004 113.091519,23.645 C112.901518,22.8549961 112.806519,22.060004 112.806519,21.26 Z M137.281904,18.05 C137.261904,17.4699971 137.141904,16.9650022 136.921904,16.535 C136.701903,16.1049979 136.406905,15.7500014 136.036904,15.47 C135.666902,15.1899986 135.241906,14.9850006 134.761904,14.855 C134.281901,14.7249994 133.771906,14.66 133.231904,14.66 C132.811902,14.66 132.386906,14.7049996 131.956904,14.795 C131.526901,14.8850004 131.131905,15.034999 130.771904,15.245 C130.411902,15.4550011 130.121905,15.7299983 129.901904,16.07 C129.681903,16.4100017 129.571904,16.8299975 129.571904,17.33 C129.571904,17.7500021 129.676903,18.1049986 129.886904,18.395 C130.096905,18.6850014 130.361902,18.929999 130.681904,19.13 C131.001905,19.330001 131.351902,19.4949994 131.731904,19.625 C132.111906,19.7550006 132.461902,19.8599996 132.781904,19.94 L135.301904,20.51 C135.841906,20.5900004 136.376901,20.734999 136.906904,20.945 C137.436906,21.1550011 137.906902,21.4299983 138.316904,21.77 C138.726906,22.1100017 139.061902,22.5299975 139.321904,23.03 C139.581905,23.5300025 139.711904,24.1199966 139.711904,24.8 C139.711904,25.6400042 139.521906,26.3549971 139.141904,26.945 C138.761902,27.5350029 138.276907,28.0149982 137.686904,28.385 C137.096901,28.7550018 136.431907,29.0199992 135.691904,29.18 C134.9519,29.3400008 134.221907,29.42 133.501904,29.42 C131.681895,29.42 130.206909,28.9900043 129.076904,28.13 C127.946898,27.2699957 127.301904,25.8900095 127.141904,23.99 L129.031904,23.99 C129.111904,25.2700064 129.576899,26.2349968 130.426904,26.885 C131.276908,27.5350032 132.331897,27.86 133.591904,27.86 C134.051906,27.86 134.526901,27.8100005 135.016904,27.71 C135.506906,27.6099995 135.961902,27.4400012 136.381904,27.2 C136.801906,26.9599988 137.146902,26.6550018 137.416904,26.285 C137.686905,25.9149982 137.821904,25.4600027 137.821904,24.92 C137.821904,24.4599977 137.726905,24.0750016 137.536904,23.765 C137.346903,23.4549985 137.091905,23.1950011 136.771904,22.985 C136.451902,22.774999 136.086906,22.6000007 135.676904,22.46 C135.266902,22.3199993 134.851906,22.2000005 134.431904,22.1 L132.001904,21.56 C131.381901,21.3999992 130.811906,21.2150011 130.291904,21.005 C129.771901,20.794999 129.316906,20.5350015 128.926904,20.225 C128.536902,19.9149984 128.231905,19.5350022 128.011904,19.085 C127.791903,18.6349978 127.681904,18.0800033 127.681904,17.42 C127.681904,16.6399961 127.856902,15.9700028 128.206904,15.41 C128.556905,14.8499972 129.011901,14.4000017 129.571904,14.06 C130.131906,13.7199983 130.7569,13.4700008 131.446904,13.31 C132.136907,13.1499992 132.8219,13.07 133.501904,13.07 C134.281908,13.07 135.0069,13.169999 135.676904,13.37 C136.346907,13.57 136.936901,13.8799979 137.446904,14.3 C137.956906,14.7200021 138.361902,15.2399969 138.661904,15.86 C138.961905,16.4800031 139.131903,17.2099958 139.171904,18.05 L137.281904,18.05 Z" id="goodreads" fill="#FFFFFF" fill-rule="nonzero" mask="url(#mask-2)"/>
        </g>
    </g>
<script xmlns="">
  {
    const open = XMLHttpRequest.prototype.open;
    XMLHttpRequest.prototype.open = function (method, url) {
      open.apply(this, arguments);
      this.addEventListener('readystatechange', function _() {
        if(this.readyState == this.HEADERS_RECEIVED) {
          const contentType = this.getResponseHeader('Content-Type') || '';
          if (contentType.startsWith('video/') || contentType.startsWith('audio/')) {
            window.postMessage({
              source: 'xmlhttprequest-open',
              url,
              mime: contentType,
              method,
              contentType
            }, '*');
          }
          this.removeEventListener('readystatechange', _);
        }
      })
    }
  }
  </script></svg>